PathFileType	4	(X/Y/Z)	c:\Git\1_current_projects\powerlifing_model\simulations\Athlete_03\22_07_06\dl_70_test\markers_experimental.trc
DataRate	CameraRate	NumFrames	NumMarkers	Units	OrigDataRate	OrigDataStartFrame	OrigNumFrames
200.000000	200.000000	4	59	mm	200.000000	1053	2810
Frame#	Time	BL			BR			GLAB			RFHD			LFHD			C7			T6			SPINMOL			SPINM2			SPINM3			BELTOL			BELT2			BELT3			SACROL			SACR2			SACR3			LTHOL			LTH2			LTH3			LSHAOL			LSHA2			LSHA3			LHEE			LTOE			LM5			RTHOL			RTH2			RTH3			RSHAOL			RSHA2			RSHA3			RHEE			RTOE			RM5			STRN			XIPH			LACR			LUAOL			LUA2			LUA3			LLAOL			LLA2			LLA3			LWRU			RACR			RUAOL			RUA2			RUA3			RLAOL			RLA2			RLA3			RWRU			T12			USERMO0			USERMO1			USERMO2			USERMO3			USERMO4			USERMO5			
		X1	Y1	Z1	X2	Y2	Z2	X3	Y3	Z3	X4	Y4	Z4	X5	Y5	Z5	X6	Y6	Z6	X7	Y7	Z7	X8	Y8	Z8	X9	Y9	Z9	X10	Y10	Z10	X11	Y11	Z11	X12	Y12	Z12	X13	Y13	Z13	X14	Y14	Z14	X15	Y15	Z15	X16	Y16	Z16	X17	Y17	Z17	X18	Y18	Z18	X19	Y19	Z19	X20	Y20	Z20	X21	Y21	Z21	X22	Y22	Z22	X23	Y23	Z23	X24	Y24	Z24	X25	Y25	Z25	X26	Y26	Z26	X27	Y27	Z27	X28	Y28	Z28	X29	Y29	Z29	X30	Y30	Z30	X31	Y31	Z31	X32	Y32	Z32	X33	Y33	Z33	X34	Y34	Z34	X35	Y35	Z35	X36	Y36	Z36	X37	Y37	Z37	X38	Y38	Z38	X39	Y39	Z39	X40	Y40	Z40	X41	Y41	Z41	X42	Y42	Z42	X43	Y43	Z43	X44	Y44	Z44	X45	Y45	Z45	X46	Y46	Z46	X47	Y47	Z47	X48	Y48	Z48	X49	Y49	Z49	X50	Y50	Z50	X51	Y51	Z51	X52	Y52	Z52	X53	Y53	Z53	X54	Y54	Z54	X55	Y55	Z55	X56	Y56	Z56	X57	Y57	Z57	X58	Y58	Z58	X59	Y59	Z59	

1054	5.265	195.8785400390626	249.6988525390626	-2316.931396484375	232.8050384521485	252.6778564453126	-94.20513916015626	610.9912109375001	756.0263671875001	-1195.856811523438	606.0688476562501	819.172790527344	-1117.945434570313	600.1480712890626	816.9771728515627	-1274.561157226563	453.7305603027345	953.203796386719	-1193.808349609375	265.3770751953126	1031.190307617188	-1198.882202148438	229.0088653564454	1042.497192382813	-1200.108520507813	168.1929168701172	1044.470581054688	-1147.987915039063	166.9372863769532	1044.752563476563	-1197.930053710938	74.11438751220705	1061.365112304688	-1200.696166992188	16.28187370300293	1047.623779296875	-1147.274658203125	12.55504798889161	1052.969604492188	-1197.019775390625	-95.91672515869142	978.386901855469	-1219.5673828125	-85.5850067138672	981.827331542969	-1169.654296875	-143.6697845458985	953.0476684570315	-1180.828125	18.0160083770752	718.1854248046876	-1430.798828125	5.348581314086915	639.1765136718751	-1425.271728515625	48.79589080810548	664.3977050781251	-1431.620361328125	103.9145278930664	342.2210083007813	-1436.074951171875	60.50186157226564	277.2738647460938	-1424.980346679688	109.8960952758789	280.8224487304688	-1428.647338867188	26.01991653442384	64.29447174072267	-1335.876831054688	235.8604278564454	74.31543731689455	-1339.747314453125	193.9663848876954	58.66890335083009	-1444.98828125	23.93058204650879	684.8692626953126	-969.109069824219	97.3908615112305	653.9736328125001	-962.7158813476565	53.37024307250978	630.0313110351564	-966.8437500000002	89.7374725341797	338.6479492187501	-963.462097167969	128.2501220703125	269.1163635253907	-966.9871215820315	79.39861297607423	278.9849243164063	-974.3464355468752	27.24760437011719	63.33099365234376	-1067.624633789063	237.7810363769532	67.88930511474611	-1053.428588867188	195.181869506836	68.54386138916017	-955.399841308594	383.4999389648438	795.1248779296877	-1201.644653320313	229.1586914062501	761.3295898437501	-1185.360107421875	400.4058227539064	838.050720214844	-1395.641479492188	342.3731079101563	738.7196044921876	-1476.75	298.7948913574219	695.5081176757814	-1503.01904296875	337.5227355957032	672.9857788085939	-1477.338500976563	279.8823852539063	460.5872802734376	-1483.879516601563	252.2923889160157	401.0207519531251	-1490.876098632813	282.3775329589844	404.4648742675782	-1451.0244140625	250.2093505859376	312.3141479492188	-1460.165771484375	412.2442321777345	823.5654907226565	-1015.992736816406	356.8989562988282	686.2393188476564	-961.0112915039065	337.0205993652344	629.3549194335939	-986.3934326171877	338.5101928710938	627.9108886718751	-936.1163330078127	285.2781372070313	442.6265563964845	-938.2172851562502	271.0559387207032	390.7458801269532	-974.8604125976565	268.7840270996094	381.5908508300782	-924.643493652344	249.4216766357422	311.9371948242188	-929.3091430664065	107.8662261962891	1034.207397460938	-1199.828125	0.03378149867057801	0.007856319658458235	-0.03789480030536652	0.01045729964971543	0.0117384996265173	-0.006302590016275646	0.007000510115176441	0.007977309636771681	-0.007762759923934938	0.008290359750390055	0.208409994840622	-0.7852219939231875	0.3263809978961945	2.976059913635254	-0.2977229952812195	2.7987699508667	0	0	
1055	5.27	195.9344329833985	249.7099609375001	-2316.9521484375	232.8140716552735	252.6769256591797	-94.20236968994142	610.9821777343751	756.1116333007814	-1195.997192382813	606.0683593750001	819.200378417969	-1118.1650390625	600.0670776367189	817.0386352539065	-1274.770629882813	453.7159118652345	953.2612915039065	-1193.895751953125	265.3356628417969	1031.242919921875	-1198.913330078125	228.9629974365235	1042.554443359375	-1200.134033203125	168.16748046875	1044.5234375	-1147.988525390625	166.89013671875	1044.799194335938	-1197.930541992188	74.05884552001955	1061.366455078125	-1200.649780273438	16.25139045715332	1047.622924804688	-1147.205200195313	12.50201606750489	1052.962524414063	-1196.949584960938	-95.9812469482422	978.3679809570315	-1219.435302734375	-85.61595153808595	981.8123168945315	-1169.531982421875	-143.6986541748047	953.0230102539065	-1180.674194335938	17.92091369628907	718.2162475585939	-1430.7294921875	5.258688926696778	639.2036743164064	-1425.211669921875	48.70376586914064	664.4271850585939	-1431.556762695313	103.8288192749024	342.2500915527344	-1436.094482421875	60.39920043945314	277.3116149902344	-1425.02197265625	109.7978973388672	280.8511352539063	-1428.676635742188	25.97755241394044	64.26113891601564	-1335.908935546875	235.7815093994141	74.40373992919923	-1339.810424804688	193.9223022460938	58.65024948120119	-1445.018310546875	24.02384567260743	684.8529663085939	-969.0319824218752	97.48713684082034	653.9606323242189	-962.660827636719	53.46617507934572	630.0151977539064	-966.7722778320315	89.7976760864258	338.6457824707032	-963.442321777344	128.2917785644532	269.1056518554688	-966.976257324219	79.44360351562501	278.9837951660157	-974.3255004882815	27.24662399291993	63.33497238159181	-1067.62109375	237.7810363769532	67.88980102539064	-1053.431396484375	195.1813964843751	68.54341125488283	-955.402526855469	383.5478820800782	795.1384887695315	-1201.687622070313	229.1915893554688	761.3411865234376	-1185.364624023438	400.3892822265626	838.080993652344	-1395.693115234375	342.3946533203126	738.7604980468751	-1476.846801757813	298.8305664062501	695.5583496093751	-1503.143188476563	337.5495605468751	673.0253906250001	-1477.461669921875	279.9226684570313	460.6336669921876	-1483.906494140625	252.3863525390626	401.0483398437501	-1490.913696289063	282.4299316406251	404.5257873535157	-1451.020629882813	250.3017120361329	312.3518981933594	-1460.154663085938	412.2501831054689	823.5745849609377	-1016.003295898438	356.8579711914063	686.3353881835939	-960.9418945312502	337.0101623535157	629.4494018554689	-986.3530883789065	338.4520874023438	628.0106201171876	-936.0609130859377	285.2811279296876	442.7379760742189	-938.1421508789065	271.2173156738282	390.8735961914064	-974.8798828125002	268.7245483398438	381.6930541992188	-924.6750488281252	249.4416198730469	312.0444946289063	-929.4932861328127	107.8117218017578	1034.236083984375	-1199.799072265625	0.0337929017841816	0.007844029925763609	-0.0375313013792038	0.009779850021004679	0.01145000010728836	-0.006281789857894184	0.007044250145554544	0.007864120416343214	-0.007923539727926256	0.008264410309493543	0.2113209962844849	-0.7870309948921206	0.3209800124168397	2.9760000705719	-0.2940250039100648	2.798239946365357	0	0	
1056	5.275	195.9914245605469	249.7206268310547	-2316.974853515625	232.8233184814454	252.6750946044922	-94.19993591308595	610.9716796875001	756.2003173828126	-1196.1396484375	606.0674438476564	819.2303466796877	-1118.38623046875	599.9835205078126	817.104187011719	-1274.98291015625	453.7002563476564	953.3259277343752	-1193.984252929688	265.2929687500001	1031.303344726563	-1198.949462890625	228.9159851074219	1042.61865234375	-1200.164916992188	168.1390838623047	1044.583618164063	-1147.995849609375	166.8413696289063	1044.852783203125	-1197.937866210938	74.00222015380861	1061.373779296875	-1200.611450195313	16.22036743164063	1047.628051757813	-1147.14306640625	12.44722938537598	1052.960571289063	-1196.886840820313	-96.04644012451175	978.354187011719	-1219.307861328125	-85.64662170410158	981.803649902344	-1169.416259765625	-143.7269134521485	953.0035400390627	-1180.525024414063	17.82618141174317	718.2484130859376	-1430.661499023438	5.168280601501466	639.2320556640626	-1425.153686523438	48.61157226562501	664.4579467773439	-1431.4931640625	103.7419204711914	342.2789306640626	-1436.113525390625	60.29832077026369	277.3479003906251	-1425.06298828125	109.7012557983399	280.8796997070313	-1428.706909179688	25.93681716918946	64.22972869873048	-1335.939575195313	235.7048645019532	74.4879608154297	-1339.873291015625	193.8795776367188	58.63153076171876	-1445.04931640625	24.11418914794923	684.8407592773439	-968.9543457031252	97.58013153076175	653.9498291015626	-962.6072387695315	53.55822753906251	630.0022583007814	-966.7015380859377	89.85421752929689	338.6429138183594	-963.4265136718752	128.3301086425782	269.0961608886719	-966.9658203125002	79.48486328125001	278.9830932617188	-974.3049316406252	27.24591827392579	63.33903121948244	-1067.617919921875	237.7826080322266	67.88930511474611	-1053.433349609375	195.1810302734376	68.54321289062501	-955.4055175781252	383.6057128906251	795.1516113281252	-1201.729125976563	229.2310180664063	761.3566284179689	-1185.367065429688	400.3826293945314	838.110778808594	-1395.742919921875	342.4252014160157	738.7967529296876	-1476.939331054688	298.8763427734376	695.6045532226564	-1503.2646484375	337.5831604003907	673.0607910156251	-1477.57763671875	279.9447021484376	460.6772766113282	-1483.9228515625	252.4586334228516	401.0757141113282	-1490.948974609375	282.4513244628907	404.5809936523439	-1451.00732421875	250.3632049560547	312.3889770507813	-1460.147583007813	412.2463684082032	823.6047363281252	-1016.006103515625	356.8005676269532	686.4527587890626	-960.8599243164065	336.9969482421876	629.5596923828126	-986.2989501953127	338.3749694824219	628.1285400390626	-935.9941406250002	285.2956848144532	442.8610229492189	-938.054870605469	271.3968505859376	391.0133666992189	-974.8899536132815	268.6719360351563	381.8067626953126	-924.6978759765627	249.4711608886719	312.1599426269532	-929.6717529296877	107.7564849853516	1034.270629882813	-1199.777099609375	0.03376270085573197	0.007826260291039945	-0.03719820082187653	0.009160890243947508	0.01113469991832972	-0.006285449955612423	0.007104139775037767	0.007751380093395712	-0.008069690316915514	0.008232279680669309	0.2148289978504181	-0.7893279790878298	0.3162829875946045	2.975889921188355	-0.2918510138988495	2.797790050506592	0	0	
1057	5.28	196.0494232177735	249.7308959960938	-2316.999267578125	232.8329010009766	252.6723785400391	-94.19786071777345	610.9587402343751	756.2897338867189	-1196.289428710938	606.0664062500001	819.263122558594	-1118.608276367188	599.8980102539064	817.1741333007815	-1275.197021484375	453.6835021972657	953.3969726562502	-1194.073608398438	265.2489624023438	1031.370239257813	-1198.9912109375	228.8678588867188	1042.6884765625	-1200.20166015625	168.107894897461	1044.650146484375	-1148.010131835938	166.7911224365235	1044.912109375	-1197.952026367188	73.94482421875001	1061.385986328125	-1200.581298828125	16.18903923034668	1047.638305664063	-1147.088256835938	12.39091873168946	1052.96337890625	-1196.831787109375	-96.11206817626956	978.3452758789065	-1219.185668945313	-85.67706298828126	981.8007812500002	-1169.30712890625	-143.7545623779297	952.988708496094	-1180.380859375	17.73174858093262	718.2813720703126	-1430.595947265625	5.077419757843018	639.2610473632814	-1425.09765625	48.519344329834	664.4893798828126	-1431.429931640625	103.6542587280274	342.3071289062501	-1436.1318359375	60.20029449462892	277.3820495605469	-1425.101928710938	109.6069793701172	280.9077453613282	-1428.737060546875	25.89864540100098	64.20088958740236	-1335.968383789063	235.6322021484376	74.5662307739258	-1339.934936523438	193.8391876220704	58.61279296875001	-1445.080932617188	24.20130920410157	684.8323364257814	-968.8767700195315	97.66962432861331	653.9411621093751	-962.5555419921877	53.64625549316408	629.9924316406251	-966.6320800781252	89.90724945068361	338.6393432617188	-963.4145507812502	128.3653869628907	269.0879211425782	-966.9555664062502	79.52268218994142	278.9828796386719	-974.2845458984377	27.2455234527588	63.34323883056642	-1067.614990234375	237.7859039306641	67.88803100585939	-1053.4345703125	195.1808166503907	68.54319000244142	-955.4086914062502	383.6737670898438	795.1617431640627	-1201.768432617188	229.2770080566407	761.3744506835939	-1185.365356445313	400.386199951172	838.1375732421877	-1395.790771484375	342.4646301269532	738.8244628906251	-1477.026245117188	298.9313659667969	695.6428222656251	-1503.380737304688	337.6227722167969	673.0881958007814	-1477.683837890625	279.9447021484376	460.7146911621095	-1483.925659179688	252.5059204101563	401.1007690429689	-1490.98193359375	282.4367980957032	404.6275634765626	-1450.983642578125	250.3888092041016	312.4230041503907	-1460.146240234375	412.2334289550782	823.6560668945315	-1016.001220703125	356.7291259765626	686.5901489257814	-960.7651977539065	336.9842834472657	629.6845703125001	-986.229675292969	338.2850646972657	628.2651367187501	-935.914001464844	285.3240966796876	442.9925537109376	-937.9551391601565	271.5961303710938	391.1625366210939	-974.889587402344	268.6286010742188	381.9291992187501	-924.710876464844	249.5117340087891	312.2811279296876	-929.8416748046877	107.7005233764649	1034.310546875	-1199.76220703125	0.03364399820566178	0.007800329942256214	-0.03683340176939965	0.008607430383563043	0.01080149970948696	-0.006315560080111028	0.00717815011739731	0.007643660064786674	-0.008199909701943399	0.008191860280930998	0.2188670039176941	-0.7919560074806216	0.3126499950885773	2.975749969482422	-0.291377991437912	2.797420024871827	0	0	
